<?xml version="1.0" standalone="no"?>
<!DOCTYPE svg PUBLIC "-//W3C//DTD SVG 20010904//EN"
 "http://www.w3.org/TR/2001/REC-SVG-20010904/DTD/svg10.dtd">
<svg version="1.0" xmlns="http://www.w3.org/2000/svg"
 width="700.000000pt" height="700.000000pt" viewBox="0 0 700.000000 700.000000"
 preserveAspectRatio="xMidYMid meet">
<metadata>
Created by potrace 1.11, written by Peter Selinger 2001-2013
</metadata>
<g transform="translate(0.000000,700.000000) scale(0.100000,-0.100000)"
fill="#000000" stroke="none">
<path d="M0 3500 l0 -3500 3500 0 3500 0 0 3500 0 3500 -3500 0 -3500 0 0
-3500z m6830 0 l0 -3330 -3330 0 -3330 0 0 3330 0 3330 3330 0 3330 0 0 -3330z"/>
<path d="M2758 6133 l-198 -3 0 -595 0 -595 -195 0 -195 0 0 -395 0 -395 195
0 194 0 4 -1237 c3 -1223 3 -1239 24 -1324 102 -410 340 -642 758 -736 59 -14
178 -17 763 -20 l692 -4 0 459 0 460 -172 4 c-226 6 -260 20 -296 125 -15 43
-17 152 -20 1161 l-3 1112 246 0 245 0 0 395 0 395 -245 0 -245 0 0 593 0 594
-317 6 c-297 7 -782 6 -1235 0z m602 -683 l0 -510 -120 0 -120 0 0 510 0 510
120 0 120 0 0 -510z m-400 -905 l0 -225 -120 0 -120 0 0 225 0 225 120 0 120
0 0 -225z m393 -1617 c3 -1198 4 -1225 24 -1313 50 -216 134 -377 264 -508 87
-86 85 -88 -52 -36 -215 82 -368 261 -441 514 l-23 80 -3 1243 -2 1242 114 0
115 0 4 -1222z"/>
</g>
</svg>
