<svg viewBox="0 0 82 82" xmlns="http://www.w3.org/2000/svg"><g stroke="#111" stroke-width="2"><path d="m1 1h80v80h-80z" fill="#f7c04a"/><path d="m32.11 26.43v-12.71h8.42v12.71h5.2v6.57h-5.2v23.23a7.34 7.34 0 0 0 .29 2.31 2.31 2.31 0 0 0 1 1.24 3.59 3.59 0 0 0 1.61.49c.63.06 1.41.08 2.35.08v7.93h-3.52a11.42 11.42 0 0 1 -4.82-.91 8.78 8.78 0 0 1 -3.1-2.31 9.2 9.2 0 0 1 -1.69-3.18 11.71 11.71 0 0 1 -.54-3.43v-25.45h-4.21v-6.57z" fill="#f7f6f4"/><path d="m36.24 26.43v-12.71h8.42v12.71h5.19v6.57h-5.19v23.23a7.39 7.39 0 0 0 .28 2.31 2.36 2.36 0 0 0 1 1.24 3.59 3.59 0 0 0 1.61.49c.63.06 1.42.08 2.35.08v7.93h-3.51a11.43 11.43 0 0 1 -4.83-.91 8.83 8.83 0 0 1 -3.09-2.31 9.05 9.05 0 0 1 -1.7-3.18 12 12 0 0 1 -.53-3.43v-25.45h-4.24v-6.57z" fill="#dd5c49"/><path d="m40.48 26.43v-12.71h8.42v12.71h5.2v6.57h-5.2v23.23a7.06 7.06 0 0 0 .29 2.31 2.29 2.29 0 0 0 .94 1.24 3.59 3.59 0 0 0 1.61.49c.64.06 1.42.08 2.36.08v7.93h-3.47a11.43 11.43 0 0 1 -4.83-.91 8.83 8.83 0 0 1 -3.09-2.31 9 9 0 0 1 -1.71-3.18 11.71 11.71 0 0 1 -.54-3.43v-25.45h-4.19v-6.57z" fill="#0071ed" stroke-miterlimit="10"/></g></svg>