<svg xmlns="http://www.w3.org/2000/svg" viewBox="0 0 82 82"><defs><style>.cls-1{fill:#f7c04a;}.cls-1,.cls-2,.cls-3,.cls-4{stroke:#111;stroke-width:2px;}.cls-2{fill:#f7f6f4;}.cls-3{fill:#dd5c49;}.cls-4{fill:#0071ed;stroke-miterlimit:10;}</style></defs><title>Asset 4</title><g id="Layer_2" data-name="Layer 2"><g id="Layer_2-2" data-name="Layer 2"><rect class="cls-1" x="1" y="1" width="80" height="80"/><path class="cls-2" d="M32.11,26.43V13.72h8.42V26.43h5.2V33h-5.2V56.23a7.34,7.34,0,0,0,.29,2.31,2.31,2.31,0,0,0,1,1.24,3.59,3.59,0,0,0,1.61.49c.63.06,1.41.08,2.35.08v7.93H42.26a11.42,11.42,0,0,1-4.82-.91,8.78,8.78,0,0,1-3.1-2.31,9.2,9.2,0,0,1-1.69-3.18,11.71,11.71,0,0,1-.54-3.43V33H27.9V26.43Z"/><path class="cls-3" d="M36.24,26.43V13.72h8.42V26.43h5.19V33H44.66V56.23a7.39,7.39,0,0,0,.28,2.31,2.36,2.36,0,0,0,1,1.24,3.59,3.59,0,0,0,1.61.49c.63.06,1.42.08,2.35.08v7.93H46.39a11.43,11.43,0,0,1-4.83-.91,8.83,8.83,0,0,1-3.09-2.31,9.05,9.05,0,0,1-1.7-3.18,12,12,0,0,1-.53-3.43V33H32V26.43Z"/><path class="cls-4" d="M40.48,26.43V13.72H48.9V26.43h5.2V33H48.9V56.23a7.06,7.06,0,0,0,.29,2.31,2.29,2.29,0,0,0,.94,1.24,3.59,3.59,0,0,0,1.61.49c.64.06,1.42.08,2.36.08v7.93H50.63a11.43,11.43,0,0,1-4.83-.91,8.83,8.83,0,0,1-3.09-2.31A9,9,0,0,1,41,61.88a11.71,11.71,0,0,1-.54-3.43V33H36.27V26.43Z"/></g></g></svg>