<svg fill="none" height="420" viewBox="0 0 420 420" width="420" xmlns="http://www.w3.org/2000/svg" xmlns:xlink="http://www.w3.org/1999/xlink"><clipPath id="a"><path d="m0 0h420v420h-420z"/></clipPath><g clip-path="url(#a)" stroke="#111" stroke-width="10"><path d="m5 415v-410h410v410z" fill="#fff"/><path d="m158.546 128.743v-71.743h47.092v71.743h29.082v37.086h-29.082v131.124c-.151 4.406.397 8.808 1.622 13.04.983 2.928 2.965 5.409 5.592 6.999 2.742 1.629 5.829 2.577 9.005 2.766 3.523.338 7.886.451 13.143.451v44.762h-19.687c-9.248.279-18.446-1.474-26.957-5.136-6.668-2.993-12.591-7.447-17.338-13.039-4.292-5.297-7.504-11.397-9.452-17.95-1.954-6.267-2.972-12.792-3.02-19.361v-143.656h-23.546v-37.086z" fill="#f84040"/><path d="m181.687 128.743v-71.743h47.039v71.743h28.995v37.085h-28.995v131.124c-.163 4.403.365 8.804 1.564 13.04 1.004 2.916 2.978 5.39 5.587 6.999 2.739 1.629 5.822 2.577 8.994 2.766 3.52.338 7.933.451 13.129.451v44.762h-19.609c-9.257.285-18.464-1.468-26.983-5.137-6.635-3.007-12.53-7.46-17.263-13.039-4.325-5.279-7.555-11.383-9.497-17.949-1.91-6.275-2.908-12.797-2.961-19.361v-143.656h-23.687v-37.085z" fill="#2eb872"/><path d="m206.612 128.743v-71.743h47.224v71.743h29.164v37.085h-29.164v131.124c-.179 4.407.371 8.814 1.626 13.04.892 2.88 2.757 5.357 5.272 6.999 2.75 1.629 5.845 2.577 9.03 2.766 3.589.338 7.964.451 13.236.451v44.762h-19.462c-9.293.285-18.536-1.468-27.089-5.137-6.661-3.007-12.579-7.46-17.33-13.039-4.369-5.269-7.631-11.376-9.591-17.949-1.96-6.267-2.98-12.792-3.028-19.361v-143.656h-23.5v-37.085z" fill="#1a6ceb" stroke-miterlimit="10"/></g></svg>